# xmcd
#
# Track frame offsets: 
#        150
#        13250
#        26220
#        37343
#        51218
#        64950
#        76868
#        88488
#        102953
#        117503
#        133770
#        151373
#        165633
#        179385
#        191785
#        203850
#        220795
#        239715
#        257615
#        270204
#        284225
#        298809
#        313489
#        327581
#
# Disc length: 4530 seconds
#
# Revision: 1
# Processed by: cddbd v1.5.2PL0 Copyright (c) Steve Scherf et al.
# Submitted via: ExactAudioCopyFreeDBPlugin 1.0
#
DISCID=8911b018
DTITLE=Johnny Hartman - The Complete Bethlehem Series Disc 1
DYEAR=2015
DGENRE=Jazz
TTITLE0=What Is There to Say?
TTITLE1=Ain't Misbehavin'
TTITLE2=I Fall in Love Too Easily
TTITLE3=We'll Be Together Again
TTITLE4=Down in the Depths
TTITLE5=They Didn't Believe Me
TTITLE6=I'm Glad There Is You
TTITLE7=When Your Lover Has Gone
TTITLE8=I'll Remember April
TTITLE9=I See Your Face Before Me
TTITLE10=September Song
TTITLE11=Moonlight in Vermont
TTITLE12=Down in the Depths (Alternate Take)
TTITLE13=They Didn't Believe Me (Alternate Take)
TTITLE14=I'm Glad There Is You (Althernate Take)
TTITLE15=I'll Remember April (Alternate Take)
TTITLE16=I See Your Face Before Me (Alternate Take)
TTITLE17=September Song (Alternate Take)
TTITLE18=Remember (with Erroll Garner Trio)
TTITLE19=Easy To Remember (with Erroll Garner Trio)
TTITLE20=September in the Rain (with Erroll Garner Trio)
TTITLE21=Home (with Erroll Garner Trio)
TTITLE22=I Should Care  (with Dizzy Gillespie)
TTITLE23=That Old Black Magic  (with Dizzy Gillespie)
EXTD=YEAR: 2013
EXTT0=
EXTT1=
EXTT2=
EXTT3=
EXTT4=
EXTT5=
EXTT6=
EXTT7=
EXTT8=
EXTT9=
EXTT10=
EXTT11=
EXTT12=
EXTT13=
EXTT14=
EXTT15=
EXTT16=
EXTT17=
EXTT18=
EXTT19=
EXTT20=
EXTT21=
EXTT22=
EXTT23=
PLAYORDER=
